PathFileType	4	(x/y/z)	S06_PSF_T02
DataRate	CameraRate	NumFrames	NumMarkers	Units	OrigDataRate	OrigDataStartFrame	OrigNumFrames
240	240	6	51	mm	240	101	402
Frame#	Time	Sternum			R.Acromium			L.Acromium			Top.Head			R.ASIS			L.ASIS			R.PSIS			L.PSIS			R.Great.Tro			L.Great.Tro			R.Iliac.Crest			L.Iliac.Crest			V.Sacral			R.Thigh.Upper.Post			R.Thigh.Lower.Ant			R.Thigh.Lower.Post			R.Thigh.Upper.Ant			R.Knee.Lat			R.Knee.Med			R.Shank.Upper.Post			R.Shank.Lower.Ant			R.Shank.Lower.Post			R.Shank.Upper.Ant			R.Ankle.Lat			R.Ankle.Med			R.Heel.Upper			R.Heel.Med			R.Heel.Lat			R.Toe.Lat			R.Toe.Med			R.Toe.Tip			L.Thigh.Upper.Post			L.Thigh.Lower.Ant			L.Thigh.Lower.Post			L.Thigh.Upper.Ant			L.Knee.Lat			L.Knee.Med			L.Shank.Upper.Post			L.Shank.Lower.Ant			L.Shank.Lower.Post			L.Shank.Upper.Ant			L.Ankle.Lat			L.Ankle.Med			L.Heel.Upper			L.Heel.Med			L.Heel.Lat			L.Toe.Lat			L.Toe.Med			L.Toe.Tip			Cervical.Spine			Back			
		X1	Y1	Z1	X2	Y2	Z2	X3	Y3	Z3	X4	Y4	Z4	X5	Y5	Z5	X6	Y6	Z6	X7	Y7	Z7	X8	Y8	Z8	X9	Y9	Z9	X10	Y10	Z10	X11	Y11	Z11	X12	Y12	Z12	X13	Y13	Z13	X14	Y14	Z14	X15	Y15	Z15	X16	Y16	Z16	X17	Y17	Z17	X18	Y18	Z18	X19	Y19	Z19	X20	Y20	Z20	X21	Y21	Z21	X22	Y22	Z22	X23	Y23	Z23	X24	Y24	Z24	X25	Y25	Z25	X26	Y26	Z26	X27	Y27	Z27	X28	Y28	Z28	X29	Y29	Z29	X30	Y30	Z30	X31	Y31	Z31	X32	Y32	Z32	X33	Y33	Z33	X34	Y34	Z34	X35	Y35	Z35	X36	Y36	Z36	X37	Y37	Z37	X38	Y38	Z38	X39	Y39	Z39	X40	Y40	Z40	X41	Y41	Z41	X42	Y42	Z42	X43	Y43	Z43	X44	Y44	Z44	X45	Y45	Z45	X46	Y46	Z46	X47	Y47	Z47	X48	Y48	Z48	X49	Y49	Z49	X50	Y50	Z50	X51	Y51	Z51	

101	0.41667	-940.43	1296.2	320.93	-1073.6	1501.2	486.81	-1076.1	1503.4	137.48	-1020.6	1817.8	314.74	-991.93	1063.6	441.52	-979.3	1059.8	189.65	NaN	NaN	NaN	-1191.4	1082	265.1	-1039.3	988.28	492.16	-1084.8	984.29	135.05	-1084.2	1134.3	472.46	-1055.3	1133	153.76	-1204.5	1044.4	307.69	-933.85	763.42	489.98	-849.19	711.7	457.61	-907.61	678.22	474.19	-872.05	799.49	467.92	-854.13	584.26	467.98	-843.76	585.78	338.25	-935.73	371.28	472.13	-888.42	296.49	458.54	-953.76	296.06	460.41	-871.08	370.71	468.88	-948.24	162.12	443.68	-929.34	165.27	359.89	-1013.5	126.78	390.75	-1005.4	93.631	363.13	-1013.2	96.892	427.16	-846.18	65.445	487.24	-806.84	63.956	370.81	-746.67	72.814	422.07	-1045.6	724.97	167.48	-1005.1	642.07	229.82	-1071.7	640.62	187.19	-980.46	731.35	204.18	-1103.2	545.43	205.85	-1078.5	553.11	326.51	-1186.2	324.66	223.54	-1131.1	254.84	230.04	-1202.7	255.51	243.47	-1119.4	323.16	215.69	-1178.7	113.23	249.22	-1168.9	132.6	338.35	-1266.4	79.527	290.13	-1262	49.088	320.05	-1256.6	56.031	258.65	-1076	46.43	228.39	-1061.8	39.274	348.86	-985.44	50.205	297.8	-1124.7	1552.8	311.98	-1189.4	1283.3	307.5
102	0.42083	-935.26	1295.7	321.1	-1068.7	1500.8	486.91	-1070.7	1503	137.58	-1015.6	1817.4	314.93	-986.67	1063.2	441.79	-974.17	1059.3	189.73	NaN	NaN	NaN	-1186.1	1081.6	265.26	-1034.1	987.79	492.25	-1080	983.9	135.19	-1079	1133.8	472.58	-1050.1	1132.4	153.85	-1199.2	1044	307.84	-929.01	762.5	489.51	-844.98	710.7	457.18	-903.52	677.37	473.64	-867.63	798.55	467.56	-849.48	583.5	467.53	-839.42	585.07	337.83	-925.68	368.44	471.71	-876.16	295.01	458.13	-941.74	292.82	459.97	-861.13	369.61	468.33	-932.58	158.87	442.95	-913.36	162.63	359.26	-996.79	121.82	389.9	-987.67	88.932	362.28	-995.63	91.902	426.32	-827.94	64.973	486.64	-788.48	64.704	370.31	-728.62	75.168	421.67	-1042.4	724.69	167.65	-1002.5	641.47	229.83	-1069.2	640.48	187.34	-977.44	730.58	204.22	-1101.5	545.43	205.93	-1076.6	552.94	326.66	-1185.3	324.91	223.73	-1130.3	254.94	230.12	-1202.1	255.82	243.69	-1118.5	323.17	215.78	-1178.8	113.28	249.47	-1168.6	132.73	338.51	-1266.3	79.69	290.37	-1261.9	49.19	320.23	-1256.6	56.248	258.84	-1076	46.441	228.44	-1061.7	39.216	348.89	-985.4	49.997	297.84	-1119.6	1552.4	312.03	-1184.1	1282.9	307.44
103	0.425	-930.07	1295.2	321.27	-1063.7	1500.4	487.02	-1065.3	1502.6	137.68	-1010.5	1817	315.12	-981.39	1062.7	442.03	-969.03	1058.8	189.83	NaN	NaN	NaN	-1180.8	1081.2	265.43	-1028.8	987.24	492.35	-1075.1	983.49	135.34	-1073.8	1133.3	472.71	-1044.8	1131.9	153.95	-1193.8	1043.5	307.99	-924.37	761.48	489.11	-840.92	709.56	456.8	-899.59	676.39	473.16	-863.33	797.47	467.24	-845	582.62	467.09	-835.24	584.23	337.42	-915.73	365.64	471.26	-864.06	293.62	457.68	-929.79	289.66	459.49	-851.32	368.53	467.76	-916.99	155.8	442.17	-897.41	160.19	358.59	-980.03	117.07	389	-969.91	84.481	361.36	-978.09	87.131	425.4	-809.81	64.737	485.96	-770.26	65.736	369.75	-710.77	77.783	421.22	-1039.2	724.38	167.81	-999.95	640.85	229.82	-1066.7	640.32	187.47	-974.41	729.79	204.23	-1099.6	545.41	206	-1074.6	552.75	326.79	-1184.4	325.16	223.92	-1129.6	255.04	230.19	-1201.4	256.14	243.89	-1117.6	323.19	215.86	-1178.8	113.33	249.71	-1168.3	132.87	338.66	-1266.2	79.857	290.61	-1261.8	49.299	320.42	-1256.5	56.465	259.03	-1075.9	46.449	228.49	-1061.7	39.163	348.92	-985.37	49.784	297.88	-1114.5	1552	312.09	-1178.8	1282.4	307.4
104	0.42917	-924.86	1294.7	321.44	-1058.7	1499.9	487.12	-1059.9	1502.1	137.78	-1005.5	1816.5	315.3	-976.1	1062.2	442.26	-963.88	1058.2	189.93	NaN	NaN	NaN	-1175.4	1080.8	265.61	-1023.5	986.65	492.45	-1070.1	983.05	135.5	-1068.5	1132.8	472.85	-1039.5	1131.3	154.04	-1188.4	1043.1	308.16	-919.91	760.37	488.79	-837	708.29	456.47	-895.83	675.31	472.73	-859.15	796.27	466.95	-840.69	581.64	466.67	-831.19	583.27	337.01	-905.89	362.88	470.77	-852.14	292.31	457.18	-917.94	286.59	458.96	-841.66	367.49	467.18	-901.47	152.92	441.34	-881.51	157.95	357.87	-963.29	112.53	388.04	-952.18	80.291	360.37	-960.56	82.589	424.42	-791.8	64.74	485.2	-752.22	67.058	369.12	-693.13	80.661	420.7	-1036	724.06	167.95	-997.34	640.21	229.78	-1064.2	640.15	187.59	-971.36	728.98	204.22	-1097.8	545.38	206.06	-1072.5	552.54	326.91	-1183.4	325.41	224.11	-1128.9	255.13	230.26	-1200.7	256.46	244.09	-1116.7	323.2	215.94	-1178.8	113.41	249.93	-1167.9	133.02	338.8	-1266.1	80.029	290.86	-1261.8	49.414	320.61	-1256.4	56.685	259.23	-1075.9	46.455	228.54	-1061.6	39.114	348.95	-985.34	49.567	297.93	-1109.3	1551.6	312.15	-1173.4	1281.8	307.37
105	0.43333	-919.63	1294.2	321.62	-1053.7	1499.4	487.24	-1054.5	1501.6	137.89	-1000.4	1816.1	315.48	-970.79	1061.7	442.46	-958.71	1057.6	190.05	NaN	NaN	NaN	-1170	1080.3	265.79	-1018.2	986.01	492.55	-1065.1	982.59	135.66	-1063.3	1132.3	472.99	-1034.2	1130.7	154.15	-1182.9	1042.6	308.33	-915.62	759.18	488.54	-833.22	706.9	456.2	-892.22	674.13	472.37	-855.07	794.95	466.7	-836.53	580.55	466.26	-827.29	582.21	336.61	-896.16	360.17	470.24	-840.41	291.1	456.64	-906.2	283.63	458.37	-832.16	366.49	466.6	-886.05	150.24	440.47	-865.71	155.93	357.12	-946.6	108.24	387.03	-934.51	76.37	359.32	-943.09	78.286	423.37	-773.95	64.981	484.36	-734.4	68.669	368.43	-675.75	83.802	420.13	-1032.7	723.71	168.06	-994.69	639.56	229.71	-1061.7	639.95	187.69	-968.29	728.15	204.18	-1095.9	545.34	206.12	-1070.5	552.33	327	-1182.5	325.66	224.29	-1128.1	255.23	230.32	-1200	256.78	244.29	-1115.8	323.2	216.01	-1178.7	113.5	250.15	-1167.6	133.18	338.93	-1266	80.208	291.1	-1261.7	49.539	320.81	-1256.4	56.908	259.43	-1075.8	46.457	228.59	-1061.5	39.07	348.97	-985.31	49.35	297.97	-1104.2	1551.1	312.22	-1168	1281.3	307.35
106	0.4375	-914.39	1293.6	321.8	-1048.7	1498.8	487.35	-1049.1	1501.1	138	-995.31	1815.6	315.66	-965.47	1061.1	442.65	-953.53	1056.9	190.18	NaN	NaN	NaN	-1164.5	1079.8	265.98	-1012.9	985.33	492.66	-1060.1	982.1	135.82	-1058	1131.7	473.14	-1028.9	1130.1	154.25	-1177.4	1042.1	308.5	-911.49	757.91	488.37	-829.54	705.39	455.97	-888.74	672.86	472.08	-851.08	793.52	466.49	-832.54	579.36	465.85	-823.53	581.03	336.21	-886.57	357.52	469.67	-828.89	289.99	456.06	-894.59	280.77	457.74	-822.83	365.54	466	-870.76	147.76	439.55	-850.06	154.13	356.33	-929.99	104.18	385.99	-916.93	72.727	358.22	-925.69	74.23	422.27	-756.29	65.457	483.45	-716.82	70.567	367.68	-658.64	87.2	419.49	-1029.5	723.34	168.16	-992.01	638.9	229.62	-1059.1	639.74	187.78	-965.2	727.31	204.11	-1093.9	545.28	206.17	-1068.3	552.1	327.08	-1181.5	325.91	224.47	-1127.3	255.32	230.37	-1199.3	257.12	244.47	-1114.8	323.2	216.08	-1178.6	113.61	250.35	-1167.2	133.34	339.06	-1265.9	80.395	291.33	-1261.6	49.674	321	-1256.3	57.136	259.63	-1075.8	46.456	228.64	-1061.4	39.031	348.99	-985.28	49.134	298.01	-1099.1	1550.7	312.3	-1162.6	1280.7	307.34
